<mxfile host="app.diagrams.net" agent="Mozilla/5.0 (Windows NT 10.0; Win64; x64) AppleWebKit/537.36 (KHTML, like Gecko) Chrome/131.0.0.0 Safari/537.36" version="26.0.6">
  <diagram name="Page-1" id="HA9yUxEbgHrG_VeOb4g_">
    <mxGraphModel dx="2183" dy="1156" grid="1" gridSize="10" guides="1" tooltips="1" connect="1" arrows="1" fold="1" page="1" pageScale="1" pageWidth="1600" pageHeight="900" math="0" shadow="0">
      <root>
        <mxCell id="0" />
        <mxCell id="1" parent="0" />
        <mxCell id="_L1goKjuF019ZfGmegnH-14" style="edgeStyle=orthogonalEdgeStyle;rounded=0;orthogonalLoop=1;jettySize=auto;html=1;exitX=0;exitY=0.5;exitDx=0;exitDy=0;entryX=0.5;entryY=1;entryDx=0;entryDy=0;" edge="1" parent="1" source="afaeD62_QibHUqOajYW0-1" target="afaeD62_QibHUqOajYW0-11">
          <mxGeometry relative="1" as="geometry">
            <Array as="points">
              <mxPoint x="605" y="285.5" />
              <mxPoint x="605" y="485.5" />
            </Array>
          </mxGeometry>
        </mxCell>
        <mxCell id="_L1goKjuF019ZfGmegnH-27" style="edgeStyle=orthogonalEdgeStyle;rounded=0;orthogonalLoop=1;jettySize=auto;html=1;exitX=1;exitY=0.5;exitDx=0;exitDy=0;entryX=0;entryY=0.5;entryDx=0;entryDy=0;" edge="1" parent="1" source="afaeD62_QibHUqOajYW0-1" target="afaeD62_QibHUqOajYW0-8">
          <mxGeometry relative="1" as="geometry" />
        </mxCell>
        <mxCell id="afaeD62_QibHUqOajYW0-1" value="Login register service" style="rounded=1;whiteSpace=wrap;html=1;shadow=0;fillColor=#dae8fc;strokeColor=#6c8ebf;fontSize=30;" parent="1" vertex="1">
          <mxGeometry x="935" y="235.5" width="250" height="100" as="geometry" />
        </mxCell>
        <mxCell id="_L1goKjuF019ZfGmegnH-16" style="edgeStyle=orthogonalEdgeStyle;rounded=0;orthogonalLoop=1;jettySize=auto;html=1;entryX=0.5;entryY=1;entryDx=0;entryDy=0;" edge="1" parent="1" source="afaeD62_QibHUqOajYW0-4" target="afaeD62_QibHUqOajYW0-11">
          <mxGeometry relative="1" as="geometry" />
        </mxCell>
        <mxCell id="_L1goKjuF019ZfGmegnH-46" style="edgeStyle=orthogonalEdgeStyle;rounded=0;orthogonalLoop=1;jettySize=auto;html=1;exitX=1;exitY=0.5;exitDx=0;exitDy=0;" edge="1" parent="1" source="afaeD62_QibHUqOajYW0-4" target="_L1goKjuF019ZfGmegnH-45">
          <mxGeometry relative="1" as="geometry" />
        </mxCell>
        <mxCell id="_L1goKjuF019ZfGmegnH-47" value="&lt;font style=&quot;font-size: 15px;&quot;&gt;http://www.omdbapi.com/&lt;/font&gt;" style="edgeLabel;html=1;align=center;verticalAlign=middle;resizable=0;points=[];labelBackgroundColor=none;" vertex="1" connectable="0" parent="_L1goKjuF019ZfGmegnH-46">
          <mxGeometry x="-0.0964" relative="1" as="geometry">
            <mxPoint x="12" y="-15" as="offset" />
          </mxGeometry>
        </mxCell>
        <mxCell id="afaeD62_QibHUqOajYW0-4" value="Browse library service" style="rounded=1;whiteSpace=wrap;html=1;shadow=0;strokeColor=#6c8ebf;align=center;verticalAlign=middle;fontFamily=Helvetica;fontSize=30;fontColor=default;fillColor=#dae8fc;" parent="1" vertex="1">
          <mxGeometry x="935" y="435.5" width="250" height="100" as="geometry" />
        </mxCell>
        <mxCell id="_L1goKjuF019ZfGmegnH-17" style="edgeStyle=orthogonalEdgeStyle;rounded=0;orthogonalLoop=1;jettySize=auto;html=1;entryX=0.5;entryY=1;entryDx=0;entryDy=0;" edge="1" parent="1" source="afaeD62_QibHUqOajYW0-5" target="afaeD62_QibHUqOajYW0-11">
          <mxGeometry relative="1" as="geometry">
            <Array as="points">
              <mxPoint x="605" y="685.5" />
              <mxPoint x="605" y="485.5" />
            </Array>
          </mxGeometry>
        </mxCell>
        <mxCell id="_L1goKjuF019ZfGmegnH-29" style="edgeStyle=orthogonalEdgeStyle;rounded=0;orthogonalLoop=1;jettySize=auto;html=1;exitX=1;exitY=0.5;exitDx=0;exitDy=0;entryX=0;entryY=0.5;entryDx=0;entryDy=0;" edge="1" parent="1" source="afaeD62_QibHUqOajYW0-5" target="_L1goKjuF019ZfGmegnH-28">
          <mxGeometry relative="1" as="geometry" />
        </mxCell>
        <mxCell id="afaeD62_QibHUqOajYW0-5" value="Watchlist service" style="rounded=1;whiteSpace=wrap;html=1;shadow=0;strokeColor=#6c8ebf;align=center;verticalAlign=middle;fontFamily=Helvetica;fontSize=30;fontColor=default;fillColor=#dae8fc;" parent="1" vertex="1">
          <mxGeometry x="935" y="635.5" width="250" height="100" as="geometry" />
        </mxCell>
        <mxCell id="afaeD62_QibHUqOajYW0-8" value="MySQL&lt;div&gt;&lt;span style=&quot;background-color: transparent; color: light-dark(rgb(0, 0, 0), rgb(255, 255, 255));&quot;&gt;database&lt;/span&gt;&lt;/div&gt;" style="shape=datastore;html=1;rounded=1;shadow=0;strokeColor=#6c8ebf;align=center;verticalAlign=top;fontFamily=Helvetica;fontSize=17;fontColor=default;fillColor=#dae8fc;horizontal=1;whiteSpace=wrap;labelBorderColor=none;textShadow=0;labelBackgroundColor=none;labelPosition=center;verticalLabelPosition=bottom;" parent="1" vertex="1">
          <mxGeometry x="1255" y="255.5" width="60" height="60" as="geometry" />
        </mxCell>
        <mxCell id="3VEuuZPruA8IvIGfFSF4-12" style="edgeStyle=orthogonalEdgeStyle;rounded=0;orthogonalLoop=1;jettySize=auto;html=1;exitX=0.5;exitY=1;exitDx=0;exitDy=0;entryX=0;entryY=0.5;entryDx=0;entryDy=0;" parent="1" source="afaeD62_QibHUqOajYW0-11" target="afaeD62_QibHUqOajYW0-1" edge="1">
          <mxGeometry relative="1" as="geometry">
            <Array as="points">
              <mxPoint x="605" y="485.5" />
              <mxPoint x="605" y="285.5" />
            </Array>
          </mxGeometry>
        </mxCell>
        <mxCell id="_L1goKjuF019ZfGmegnH-31" value="&lt;font style=&quot;font-size: 25px;&quot;&gt;/service/login-register&lt;/font&gt;" style="edgeLabel;html=1;align=center;verticalAlign=middle;resizable=0;points=[];labelBackgroundColor=none;" vertex="1" connectable="0" parent="3VEuuZPruA8IvIGfFSF4-12">
          <mxGeometry x="0.5632" y="3" relative="1" as="geometry">
            <mxPoint x="-29" y="-17" as="offset" />
          </mxGeometry>
        </mxCell>
        <mxCell id="3VEuuZPruA8IvIGfFSF4-13" style="edgeStyle=orthogonalEdgeStyle;rounded=0;orthogonalLoop=1;jettySize=auto;html=1;exitX=0.5;exitY=1;exitDx=0;exitDy=0;entryX=0;entryY=0.5;entryDx=0;entryDy=0;" parent="1" source="afaeD62_QibHUqOajYW0-11" target="afaeD62_QibHUqOajYW0-4" edge="1">
          <mxGeometry relative="1" as="geometry" />
        </mxCell>
        <mxCell id="_L1goKjuF019ZfGmegnH-36" value="&lt;font style=&quot;font-size: 25px;&quot;&gt;/service/browse-library&lt;/font&gt;" style="edgeLabel;html=1;align=center;verticalAlign=middle;resizable=0;points=[];labelBackgroundColor=none;" vertex="1" connectable="0" parent="3VEuuZPruA8IvIGfFSF4-13">
          <mxGeometry x="0.1511" y="3" relative="1" as="geometry">
            <mxPoint x="19" y="-15" as="offset" />
          </mxGeometry>
        </mxCell>
        <mxCell id="3VEuuZPruA8IvIGfFSF4-14" style="edgeStyle=orthogonalEdgeStyle;rounded=0;orthogonalLoop=1;jettySize=auto;html=1;exitX=0.5;exitY=1;exitDx=0;exitDy=0;entryX=0;entryY=0.5;entryDx=0;entryDy=0;" parent="1" source="afaeD62_QibHUqOajYW0-11" target="afaeD62_QibHUqOajYW0-5" edge="1">
          <mxGeometry relative="1" as="geometry">
            <Array as="points">
              <mxPoint x="605" y="485.5" />
              <mxPoint x="605" y="685.5" />
            </Array>
          </mxGeometry>
        </mxCell>
        <mxCell id="_L1goKjuF019ZfGmegnH-38" value="/service/watchlist" style="edgeLabel;html=1;align=center;verticalAlign=middle;resizable=0;points=[];fontSize=25;" vertex="1" connectable="0" parent="3VEuuZPruA8IvIGfFSF4-14">
          <mxGeometry x="0.3955" y="1" relative="1" as="geometry">
            <mxPoint x="24" y="-17" as="offset" />
          </mxGeometry>
        </mxCell>
        <mxCell id="afaeD62_QibHUqOajYW0-11" value="Ingress" style="rounded=1;whiteSpace=wrap;html=1;shadow=0;fillColor=#dae8fc;strokeColor=#6c8ebf;fontSize=30;direction=north;flipH=0;horizontal=1;align=center;textDirection=vertical-lr;fontStyle=1" parent="1" vertex="1">
          <mxGeometry x="390" y="335.5" width="100" height="300" as="geometry" />
        </mxCell>
        <mxCell id="afaeD62_QibHUqOajYW0-20" value="Microservices" style="text;html=1;align=center;verticalAlign=middle;resizable=0;points=[];autosize=1;strokeColor=none;fillColor=none;fontFamily=Helvetica;fontSize=30;fontColor=default;fontStyle=1;shadow=0;" parent="1" vertex="1">
          <mxGeometry x="955" y="70" width="210" height="50" as="geometry" />
        </mxCell>
        <mxCell id="_L1goKjuF019ZfGmegnH-44" style="edgeStyle=orthogonalEdgeStyle;rounded=0;orthogonalLoop=1;jettySize=auto;html=1;entryX=0.5;entryY=0;entryDx=0;entryDy=0;" edge="1" parent="1" source="afaeD62_QibHUqOajYW0-10" target="afaeD62_QibHUqOajYW0-11">
          <mxGeometry relative="1" as="geometry" />
        </mxCell>
        <mxCell id="afaeD62_QibHUqOajYW0-10" value="&lt;font style=&quot;font-size: 25px;&quot;&gt;Web Application&lt;/font&gt;" style="verticalLabelPosition=top;html=1;verticalAlign=bottom;align=center;strokeColor=none;fillColor=#00BEF2;shape=mxgraph.azure.website_generic;pointerEvents=1;rounded=1;shadow=0;fontFamily=Helvetica;fontSize=20;fontColor=default;container=0;labelPosition=center;" parent="1" vertex="1">
          <mxGeometry x="70" y="387.75" width="230" height="195.5" as="geometry" />
        </mxCell>
        <mxCell id="_L1goKjuF019ZfGmegnH-28" value="MySQL database" style="shape=datastore;html=1;rounded=1;shadow=0;strokeColor=#6c8ebf;align=center;verticalAlign=top;fontFamily=Helvetica;fontSize=17;fontColor=default;fillColor=#dae8fc;horizontal=1;whiteSpace=wrap;labelBorderColor=none;textShadow=0;labelBackgroundColor=none;labelPosition=center;verticalLabelPosition=bottom;" vertex="1" parent="1">
          <mxGeometry x="1255" y="655.5" width="60" height="60" as="geometry" />
        </mxCell>
        <mxCell id="_L1goKjuF019ZfGmegnH-45" value="OMDB API" style="rounded=1;whiteSpace=wrap;html=1;shadow=0;fillColor=#dae8fc;strokeColor=#6c8ebf;fontSize=30;" vertex="1" parent="1">
          <mxGeometry x="1410" y="435.5" width="120" height="100" as="geometry" />
        </mxCell>
      </root>
    </mxGraphModel>
  </diagram>
</mxfile>
